<?xml version="1.0" encoding="UTF-8"?>
<svg id="Layer_1" data-name="Layer 1" xmlns="http://www.w3.org/2000/svg" viewBox="0 0 1080 1080">
  <defs>
    <style>
      .cls-1 {
        fill: #482683;
      }

      .cls-2 {
        fill: #d7282f;
      }
    </style>
  </defs>
  <g>
    <g>
      <path class="cls-1" d="M870.83,485.8h26.9c58.35,0,92.27-56.57,92.27-56.57h-26.9s-33.92,56.57-92.27,56.57Z"/>
      <path class="cls-1" d="M758.28,568.28h12.07c-38.34,0-69.53-31.19-69.53-69.53s31.19-69.53,69.53-69.53h-12.07c-38.34,0-69.53,31.19-69.53,69.53s31.19,69.53,69.53,69.53Z"/>
      <path class="cls-1" d="M920.47,511.71h-26.9c38.34,0,69.53,31.19,69.53,69.53s-31.19,69.53-69.53,69.53h26.9c38.34,0,69.53-31.19,69.53-69.53s-31.19-69.53-69.53-69.53Z"/>
      <path class="cls-1" d="M793.31,594.2h-12.07c-63.92,0-91.87,56.57-91.87,56.57h12.07s27.95-56.57,91.87-56.57Z"/>
    </g>
    <g>
      <path class="cls-1" d="M184.4,540.16c0-15.62,12.67-28.29,28.29-28.29h-12.07c-15.62,0-28.29,12.67-28.29,28.29s12.67,28.29,28.29,28.29h12.07c-15.62,0-28.29-12.67-28.29-28.29Z"/>
      <path class="cls-1" d="M293.07,511.87h-33.22c15.62,0,28.29,12.67,28.29,28.29s-12.67,28.29-28.29,28.29h33.22c15.62,0,28.29-12.67,28.29-28.29s-12.67-28.29-28.29-28.29Z"/>
    </g>
    <g>
      <path class="cls-1" d="M265.76,485.96h33.22c58.35,0,92.27-56.57,92.27-56.57h-33.22s-33.92,56.57-92.27,56.57Z"/>
      <path class="cls-1" d="M102.07,540c0-60.99,49.62-110.62,110.62-110.62h-12.07c-60.99,0-110.62,49.62-110.62,110.62s49.62,110.62,110.62,110.62h12.07c-60.99,0-110.62-49.62-110.62-110.62Z"/>
      <path class="cls-1" d="M298.98,594.04h-33.22c58.35,0,92.27,56.57,92.27,56.57h33.22s-33.92-56.57-92.27-56.57Z"/>
    </g>
    <g>
      <path class="cls-1" d="M602.97,511.71l-25.56.07c37.72.73,68.19,31.58,68.19,69.47s-31.19,69.53-69.53,69.53h26.9c38.34,0,69.53-31.19,69.53-69.53s-31.19-69.53-69.53-69.53Z"/>
      <path class="cls-1" d="M553.33,486.12h26.9c58.35,0,92.27-56.57,92.27-56.57h-26.9s-33.92,56.57-92.27,56.57Z"/>
      <path class="cls-1" d="M453.54,540.32c0,15.62,12.67,28.29,28.29,28.29l11.46-.03c-15.34-.32-27.68-12.84-27.68-28.26s12.67-28.29,28.29-28.29l25.45-.1-37.51.1c-15.62,0-28.29,12.67-28.29,28.29Z"/>
      <path class="cls-1" d="M383.27,540.16c0-60.99,49.62-110.62,110.62-110.62h-12.07c-60.99,0-110.62,49.62-110.62,110.62s49.62,110.62,110.62,110.62h12.07c-60.99,0-110.62-49.62-110.62-110.62Z"/>
    </g>
  </g>
  <g>
    <path class="cls-2" d="M858.76,485.8h-100.48c-7.03,0-12.96,5.93-12.96,12.96s5.93,12.96,12.96,12.96h123.22c38.34,0,69.53,31.19,69.53,69.53s-31.19,69.53-69.53,69.53h-192.12s27.95-56.57,91.87-56.57h100.25c7.03,0,12.96-5.93,12.96-12.96s-5.93-12.96-12.96-12.96h-123.22c-38.34,0-69.53-31.19-69.53-69.53s31.19-69.53,69.53-69.53h192.75s-33.92,56.57-92.27,56.57Z"/>
    <g>
      <path class="cls-2" d="M200.62,568.45c-15.62,0-28.29-12.67-28.29-28.29s12.67-28.29,28.29-28.29h47.17c15.62,0,28.29,12.67,28.29,28.29s-12.67,28.29-28.29,28.29h-47.17Z"/>
      <path class="cls-2" d="M200.62,650.62h145.35s-33.92-56.57-92.27-56.57-53.08,0-53.08,0c-29.8,0-54.04-24.24-54.04-54.04s24.24-54.04,54.04-54.04c0,0-5.28,0,53.08,0s92.27-56.57,92.27-56.57h-145.35c-60.99,0-110.62,49.62-110.62,110.62s49.62,110.62,110.62,110.62Z"/>
    </g>
    <path class="cls-2" d="M564.01,650.78c38.34,0,69.53-31.19,69.53-69.53s-31.19-69.53-69.53-69.53l-82.18.32c-15.62,0-28.29,12.67-28.29,28.29s12.67,28.29,28.29,28.29l82.18-.32c7.03,0,12.96,5.93,12.96,12.96,0,7.02-5.93,12.96-12.96,12.96h-82.18c-29.8,0-54.04-24.24-54.04-54.04s24.24-54.04,54.04-54.04h59.44c58.35,0,92.27-56.57,92.27-56.57h-151.71c-60.99,0-110.62,49.62-110.62,110.62s49.62,110.62,110.62,110.62h82.18Z"/>
  </g>
</svg>