<?xml version="1.0" encoding="UTF-8"?>
<svg id="Layer_1" data-name="Layer 1" xmlns="http://www.w3.org/2000/svg" viewBox="0 0 4259.86 368.62">
  <defs>
    <style>
      .cls-1 {
        fill: #482683;
      }

      .cls-2 {
        fill: #9d9d9c;
      }

      .cls-3 {
        fill: #0033a1;
      }

      .cls-4 {
        fill: #d7282f;
      }
    </style>
  </defs>
  <g>
    <g>
      <path class="cls-3" d="M1166.58,95.7h113.29v16.12h-95.6v53.51h85.52v16.12h-85.52v54.85h96.72v16.12h-114.41V95.7Z"/>
      <path class="cls-3" d="M1364.94,172.5l-57.99-76.79h20.82l48.14,64.03,47.69-64.03h20.6l-57.99,76.57,60.22,80.15h-21.04l-50.15-67.39-50.15,67.39h-20.37l60.23-79.93Z"/>
      <path class="cls-3" d="M1478.89,95.7h17.69v69.63h90.45v-69.63h17.69v156.72h-17.69v-70.52h-90.45v70.52h-17.69V95.7Z"/>
      <path class="cls-3" d="M1650.6,95.7h17.69v156.72h-17.69V95.7Z"/>
      <path class="cls-3" d="M1714.18,95.7h66.72c17.91,0,32.02,5.15,40.97,13.88,6.49,6.72,10.08,15,10.08,25.08v.45c0,20.37-12.54,30.9-24.85,36.27,18.58,5.6,33.58,16.35,33.58,37.84v.45c0,26.87-22.61,42.76-56.87,42.76h-69.63V95.7ZM1777.98,165.56c21.27,0,36.05-9.63,36.05-27.99v-.45c0-15.45-12.31-25.52-34.7-25.52h-47.69v53.96h46.34ZM1784.25,236.53c23.73,0,38.51-10.52,38.51-27.99v-.45c0-17.02-14.33-26.87-41.64-26.87h-49.48v55.3h52.61Z"/>
      <path class="cls-3" d="M1877.38,95.7h17.69v156.72h-17.69V95.7Z"/>
      <path class="cls-3" d="M1982.38,112.05h-52.61v-16.35h123.14v16.35h-52.61v140.37h-17.91V112.05Z"/>
    </g>
    <g>
      <path class="cls-4" d="M2152.59,171.82v-.45c0-42.99,31.57-81.05,78.58-81.05,26.42,0,42.76,7.62,58.44,20.82l-11.42,13.43c-12.09-10.52-25.52-17.91-47.69-17.91-34.7,0-59.55,29.33-59.55,64.26v.45c0,37.39,23.96,65.15,62.02,65.15,17.91,0,34.48-6.94,45.22-15.67v-38.96h-47.69v-15.89h64.7v62.46c-14.55,12.99-36.49,23.96-62.91,23.96-49.26,0-79.71-35.82-79.71-80.6Z"/>
      <path class="cls-4" d="M2335.05,93.02h67.39c19.25,0,34.7,5.82,44.55,15.67,7.62,7.61,12.09,18.58,12.09,30.89v.45c0,25.97-17.91,41.2-42.54,45.67l48.13,64.03h-21.72l-45.45-60.9h-44.78v60.9h-17.69V93.02ZM2400.87,172.94c23.51,0,40.3-12.09,40.3-32.24v-.45c0-19.25-14.78-30.89-40.07-30.89h-48.36v63.58h48.14Z"/>
      <path class="cls-4" d="M2554.89,91.9h16.57l71.42,157.84h-19.03l-18.36-41.42h-85.3l-18.58,41.42h-18.14l71.42-157.84ZM2598.55,192.42l-35.6-79.93-35.82,79.93h71.42Z"/>
      <path class="cls-4" d="M2673.77,93.02h58.66c35.37,0,58.66,18.81,58.66,49.7v.45c0,33.81-28.21,51.27-61.57,51.27h-38.06v55.3h-17.69V93.02ZM2730.19,178.32c25.97,0,42.99-13.88,42.99-34.48v-.45c0-22.39-16.79-34.03-42.09-34.03h-39.63v68.96h38.73Z"/>
      <path class="cls-4" d="M2823.32,93.02h17.69v69.63h90.45v-69.63h17.69v156.72h-17.69v-70.52h-90.45v70.52h-17.69V93.02Z"/>
      <path class="cls-4" d="M2995.03,93.02h17.69v156.72h-17.69V93.02Z"/>
      <path class="cls-4" d="M3051.66,171.82v-.45c0-44.33,33.13-81.05,79.25-81.05,28.43,0,45.45,10.08,61.12,24.85l-12.09,12.99c-13.21-12.54-27.99-21.49-49.26-21.49-34.7,0-60.67,28.21-60.67,64.26v.45c0,36.27,26.2,64.7,60.67,64.7,21.49,0,35.6-8.28,50.6-22.61l11.64,11.42c-16.35,16.57-34.26,27.54-62.69,27.54-45.22,0-78.58-35.6-78.58-80.6Z"/>
    </g>
    <g>
      <path class="cls-1" d="M3292.63,226.9l10.97-12.99c16.35,14.78,32.02,22.16,53.73,22.16s34.93-11.19,34.93-26.64v-.45c0-14.55-7.84-22.84-40.75-29.78-36.05-7.84-52.61-19.48-52.61-45.22v-.45c0-24.63,21.72-42.76,51.49-42.76,22.84,0,39.18,6.49,55.08,19.25l-10.3,13.66c-14.55-11.87-29.1-17.02-45.23-17.02-20.37,0-33.36,11.19-33.36,25.3v.45c0,14.78,8.06,23.06,42.54,30.45,34.93,7.61,51.04,20.37,51.04,44.33v.45c0,26.87-22.39,44.33-53.51,44.33-24.85,0-45.22-8.29-64.03-25.08Z"/>
      <path class="cls-1" d="M3447.77,93.02h17.69v156.72h-17.69V93.02Z"/>
      <path class="cls-1" d="M3504.41,171.82v-.45c0-42.99,31.57-81.05,78.58-81.05,26.42,0,42.76,7.62,58.44,20.82l-11.42,13.43c-12.09-10.52-25.52-17.91-47.69-17.91-34.7,0-59.55,29.33-59.55,64.26v.45c0,37.39,23.96,65.15,62.02,65.15,17.91,0,34.48-6.94,45.22-15.67v-38.96h-47.69v-15.89h64.7v62.46c-14.55,12.99-36.49,23.96-62.91,23.96-49.26,0-79.71-35.82-79.71-80.6Z"/>
      <path class="cls-1" d="M3686.87,93.02h16.57l98.73,125.6v-125.6h17.24v156.72h-14.1l-101.19-128.51v128.51h-17.24V93.02Z"/>
    </g>
    <g>
      <path class="cls-2" d="M3919.1,161.99h10.04v79.63h50.04v9.27h-60.08v-88.9Z"/>
      <path class="cls-2" d="M3997.72,161.99h10.04v79.63h50.04v9.27h-60.08v-88.9Z"/>
      <path class="cls-2" d="M4067.33,206.7v-.25c0-25.15,18.79-45.98,44.96-45.98,16.13,0,25.78,5.72,34.67,14.1l-6.86,7.37c-7.49-7.11-15.88-12.19-27.94-12.19-19.69,0-34.42,16-34.42,36.45v.26c0,20.58,14.86,36.71,34.42,36.71,12.19,0,20.19-4.7,28.7-12.83l6.61,6.48c-9.27,9.4-19.43,15.62-35.56,15.62-25.65,0-44.58-20.19-44.58-45.72Z"/>
    </g>
  </g>
  <g>
    <g>
      <g>
        <path class="cls-1" d="M870.83,117.17h26.9c58.35,0,92.27-56.57,92.27-56.57h-26.9s-33.92,56.57-92.27,56.57Z"/>
        <path class="cls-1" d="M758.28,199.66h12.07c-38.34,0-69.53-31.19-69.53-69.53s31.19-69.53,69.53-69.53h-12.07c-38.34,0-69.53,31.19-69.53,69.53s31.19,69.53,69.53,69.53Z"/>
        <path class="cls-1" d="M920.47,143.09h-26.9c38.34,0,69.53,31.19,69.53,69.53s-31.19,69.53-69.53,69.53h26.9c38.34,0,69.53-31.19,69.53-69.53s-31.19-69.53-69.53-69.53Z"/>
        <path class="cls-1" d="M793.31,225.58h-12.07c-63.92,0-91.87,56.57-91.87,56.57h12.07s27.95-56.57,91.87-56.57Z"/>
      </g>
      <g>
        <path class="cls-1" d="M184.4,171.54c0-15.62,12.67-28.29,28.29-28.29h-12.07c-15.62,0-28.29,12.67-28.29,28.29s12.67,28.29,28.29,28.29h12.07c-15.62,0-28.29-12.67-28.29-28.29Z"/>
        <path class="cls-1" d="M293.07,143.25h-33.22c15.62,0,28.29,12.67,28.29,28.29s-12.67,28.29-28.29,28.29h33.22c15.62,0,28.29-12.67,28.29-28.29s-12.67-28.29-28.29-28.29Z"/>
      </g>
      <g>
        <path class="cls-1" d="M265.76,117.33h33.22c58.35,0,92.27-56.57,92.27-56.57h-33.22s-33.92,56.57-92.27,56.57Z"/>
        <path class="cls-1" d="M102.07,171.37c0-60.99,49.62-110.62,110.62-110.62h-12.07c-60.99,0-110.62,49.62-110.62,110.62s49.62,110.62,110.62,110.62h12.07c-60.99,0-110.62-49.62-110.62-110.62Z"/>
        <path class="cls-1" d="M298.98,225.42h-33.22c58.35,0,92.27,56.57,92.27,56.57h33.22s-33.92-56.57-92.27-56.57Z"/>
      </g>
      <g>
        <path class="cls-1" d="M602.97,143.09l-25.56.07c37.72.73,68.19,31.58,68.19,69.47s-31.19,69.53-69.53,69.53h26.9c38.34,0,69.53-31.19,69.53-69.53s-31.19-69.53-69.53-69.53Z"/>
        <path class="cls-1" d="M553.33,117.49h26.9c58.35,0,92.27-56.57,92.27-56.57h-26.9s-33.92,56.57-92.27,56.57Z"/>
        <path class="cls-1" d="M453.54,171.7c0,15.62,12.67,28.29,28.29,28.29l11.46-.03c-15.34-.32-27.68-12.84-27.68-28.26s12.67-28.29,28.29-28.29l25.45-.1-37.51.1c-15.62,0-28.29,12.67-28.29,28.29Z"/>
        <path class="cls-1" d="M383.27,171.54c0-60.99,49.62-110.62,110.62-110.62h-12.07c-60.99,0-110.62,49.62-110.62,110.62s49.62,110.62,110.62,110.62h12.07c-60.99,0-110.62-49.62-110.62-110.62Z"/>
      </g>
    </g>
    <g>
      <path class="cls-4" d="M858.76,117.17h-100.48c-7.03,0-12.96,5.93-12.96,12.96s5.93,12.96,12.96,12.96h123.22c38.34,0,69.53,31.19,69.53,69.53s-31.19,69.53-69.53,69.53h-192.12s27.95-56.57,91.87-56.57h100.25c7.03,0,12.96-5.93,12.96-12.96s-5.93-12.96-12.96-12.96h-123.22c-38.34,0-69.53-31.19-69.53-69.53s31.19-69.53,69.53-69.53h192.75s-33.92,56.57-92.27,56.57Z"/>
      <g>
        <path class="cls-4" d="M200.62,199.82c-15.62,0-28.29-12.67-28.29-28.29s12.67-28.29,28.29-28.29h47.17c15.62,0,28.29,12.67,28.29,28.29s-12.67,28.29-28.29,28.29h-47.17Z"/>
        <path class="cls-4" d="M200.62,281.99h145.35s-33.92-56.57-92.27-56.57-53.08,0-53.08,0c-29.8,0-54.04-24.24-54.04-54.04s24.24-54.04,54.04-54.04c0,0-5.28,0,53.08,0s92.27-56.57,92.27-56.57h-145.35c-60.99,0-110.62,49.62-110.62,110.62s49.62,110.62,110.62,110.62Z"/>
      </g>
      <path class="cls-4" d="M564.01,282.15c38.34,0,69.53-31.19,69.53-69.53s-31.19-69.53-69.53-69.53l-82.18.32c-15.62,0-28.29,12.67-28.29,28.29s12.67,28.29,28.29,28.29l82.18-.32c7.03,0,12.96,5.93,12.96,12.96,0,7.02-5.93,12.96-12.96,12.96h-82.18c-29.8,0-54.04-24.24-54.04-54.04s24.24-54.04,54.04-54.04h59.44c58.35,0,92.27-56.57,92.27-56.57h-151.71c-60.99,0-110.62,49.62-110.62,110.62s49.62,110.62,110.62,110.62h82.18Z"/>
    </g>
  </g>
</svg>