<?xml version="1.0" encoding="UTF-8"?>
<svg id="Layer_1" data-name="Layer 1" xmlns="http://www.w3.org/2000/svg" viewBox="0 0 2114.79 216.89">
  <defs>
    <style>
      .cls-1 {
        fill: #482683;
      }

      .cls-2 {
        fill: #9d9d9c;
      }

      .cls-3 {
        fill: #0033a1;
      }

      .cls-4 {
        fill: #d7282f;
      }
    </style>
  </defs>
  <g>
    <path class="cls-3" d="M46.29,66.22h77.31v11H58.36v36.52h58.36v11h-58.36v37.43h66v11H46.29v-106.95Z"/>
    <path class="cls-3" d="M181.65,118.63l-39.57-52.41h14.21l32.85,43.7,32.54-43.7h14.06l-39.57,52.25,41.1,54.7h-14.36l-34.22-45.99-34.22,45.99h-13.9l41.1-54.54Z"/>
    <path class="cls-3" d="M259.41,66.22h12.07v47.52h61.72v-47.52h12.07v106.95h-12.07v-48.13h-61.72v48.13h-12.07v-106.95Z"/>
    <path class="cls-3" d="M376.59,66.22h12.07v106.95h-12.07v-106.95Z"/>
    <path class="cls-3" d="M419.97,66.22h45.53c12.22,0,21.85,3.51,27.96,9.47,4.43,4.58,6.88,10.24,6.88,17.11v.31c0,13.9-8.55,21.08-16.96,24.75,12.68,3.82,22.92,11.15,22.92,25.82v.31c0,18.34-15.43,29.18-38.81,29.18h-47.52v-106.95ZM463.52,113.89c14.51,0,24.6-6.57,24.6-19.1v-.31c0-10.54-8.4-17.42-23.68-17.42h-32.54v36.82h31.63ZM467.79,162.33c16.19,0,26.28-7.18,26.28-19.1v-.31c0-11.61-9.78-18.34-28.42-18.34h-33.77v37.74h35.9Z"/>
    <path class="cls-3" d="M531.34,66.22h12.07v106.95h-12.07v-106.95Z"/>
    <path class="cls-3" d="M603,77.38h-35.9v-11.15h84.03v11.15h-35.9v95.79h-12.22v-95.79Z"/>
  </g>
  <g>
    <path class="cls-4" d="M719.15,118.17v-.31c0-29.33,21.54-55.31,53.63-55.31,18.03,0,29.18,5.2,39.88,14.21l-7.79,9.17c-8.25-7.18-17.42-12.22-32.54-12.22-23.68,0-40.64,20.01-40.64,43.85v.31c0,25.52,16.35,44.46,42.32,44.46,12.22,0,23.53-4.74,30.86-10.69v-26.58h-32.54v-10.85h44.15v42.63c-9.93,8.86-24.9,16.35-42.93,16.35-33.61,0-54.39-24.45-54.39-55Z"/>
    <path class="cls-4" d="M843.67,64.39h45.99c13.14,0,23.68,3.97,30.4,10.7,5.2,5.19,8.25,12.68,8.25,21.08v.31c0,17.72-12.22,28.11-29.03,31.17l32.85,43.7h-14.82l-31.01-41.56h-30.56v41.56h-12.07v-106.95ZM888.59,118.93c16.04,0,27.5-8.25,27.5-22v-.31c0-13.14-10.08-21.08-27.35-21.08h-33v43.39h32.85Z"/>
    <path class="cls-4" d="M993.69,63.63h11.31l48.74,107.71h-12.99l-12.53-28.27h-58.21l-12.68,28.27h-12.38l48.74-107.71ZM1023.49,132.23l-24.29-54.54-24.45,54.54h48.74Z"/>
    <path class="cls-4" d="M1074.81,64.39h40.03c24.14,0,40.03,12.83,40.03,33.92v.31c0,23.07-19.25,34.99-42.01,34.99h-25.97v37.74h-12.07v-106.95ZM1113.32,122.6c17.72,0,29.33-9.47,29.33-23.53v-.31c0-15.28-11.46-23.22-28.72-23.22h-27.04v47.06h26.43Z"/>
    <path class="cls-4" d="M1176.87,64.39h12.07v47.52h61.72v-47.52h12.07v106.95h-12.07v-48.13h-61.72v48.13h-12.07v-106.95Z"/>
    <path class="cls-4" d="M1294.05,64.39h12.07v106.95h-12.07v-106.95Z"/>
    <path class="cls-4" d="M1332.7,118.17v-.31c0-30.25,22.61-55.31,54.08-55.31,19.4,0,31.02,6.88,41.71,16.96l-8.25,8.86c-9.01-8.55-19.1-14.67-33.61-14.67-23.68,0-41.4,19.25-41.4,43.85v.31c0,24.75,17.88,44.15,41.4,44.15,14.67,0,24.29-5.65,34.53-15.43l7.95,7.79c-11.15,11.31-23.38,18.79-42.78,18.79-30.86,0-53.63-24.29-53.63-55Z"/>
  </g>
  <g>
    <path class="cls-1" d="M1497.13,155.76l7.49-8.86c11.15,10.08,21.85,15.13,36.67,15.13s23.83-7.64,23.83-18.18v-.31c0-9.93-5.35-15.59-27.81-20.32-24.6-5.35-35.9-13.29-35.9-30.86v-.31c0-16.81,14.82-29.18,35.14-29.18,15.59,0,26.74,4.43,37.59,13.14l-7.03,9.32c-9.93-8.1-19.86-11.61-30.86-11.61-13.9,0-22.76,7.64-22.76,17.26v.31c0,10.08,5.5,15.74,29.03,20.78,23.83,5.19,34.83,13.9,34.83,30.25v.31c0,18.34-15.28,30.25-36.52,30.25-16.96,0-30.86-5.65-43.7-17.11Z"/>
    <path class="cls-1" d="M1603.01,64.39h12.07v106.95h-12.07v-106.95Z"/>
    <path class="cls-1" d="M1641.66,118.17v-.31c0-29.33,21.54-55.31,53.63-55.31,18.03,0,29.18,5.2,39.88,14.21l-7.79,9.17c-8.25-7.18-17.42-12.22-32.54-12.22-23.68,0-40.64,20.01-40.64,43.85v.31c0,25.52,16.35,44.46,42.32,44.46,12.22,0,23.53-4.74,30.86-10.69v-26.58h-32.54v-10.85h44.15v42.63c-9.93,8.86-24.9,16.35-42.93,16.35-33.61,0-54.39-24.45-54.39-55Z"/>
    <path class="cls-1" d="M1766.17,64.39h11.31l67.38,85.71v-85.71h11.76v106.95h-9.63l-69.06-87.7v87.7h-11.76v-106.95Z"/>
  </g>
  <g>
    <path class="cls-2" d="M1924.65,111.46h6.85v54.34h34.15v6.33h-41v-60.67Z"/>
    <path class="cls-2" d="M1978.3,111.46h6.85v54.34h34.15v6.33h-41v-60.67Z"/>
    <path class="cls-2" d="M2025.81,141.97v-.17c0-17.16,12.83-31.38,30.68-31.38,11.01,0,17.59,3.9,23.66,9.62l-4.68,5.03c-5.11-4.85-10.83-8.32-19.07-8.32-13.44,0-23.49,10.92-23.49,24.87v.18c0,14.04,10.14,25.05,23.49,25.05,8.32,0,13.78-3.21,19.59-8.75l4.51,4.42c-6.33,6.41-13.26,10.66-24.27,10.66-17.51,0-30.42-13.78-30.42-31.2Z"/>
  </g>
</svg>